<?xml version="1.0" encoding="utf-8"?>
<!-- Generator: Adobe Illustrator 22.0.0, SVG Export Plug-In . SVG Version: 6.00 Build 0)  -->
<svg version="1.1" id="Layer_1" xmlns="http://www.w3.org/2000/svg" xmlns:xlink="http://www.w3.org/1999/xlink" x="0px" y="0px"
	 viewBox="0 0 383.3 378.4" enable-background="new 0 0 383.3 378.4" xml:space="preserve">
<path d="M-1,0c60.1,0,120.1,0,180.5,0c0,67.8,0,135.3,0,203.2c-14.9,0-29.7,0-44.8,0c0,13.6,0,26.8,0,40.8c-1.8-0.8-3.1-1.4-4.4-2
	c-24.8-12.4-49.5-24.8-74.3-37.1c-1.9-1-4.2-1.5-6.4-1.6c-16.9-0.1-33.7-0.1-50.6,0C-1,135.5-1,67.8-1,0z M156.8,180.7
	c0-52.9,0-105.4,0-157.9c-45.2,0-90.1,0-135.1,0c0,52.7,0,105.1,0,157.9c1.5,0,2.9,0,4.2,0c9.7,0,19.5-0.1,29.2,0.1
	c1.9,0,4,0.5,5.7,1.4c15.7,7.7,31.3,15.6,46.9,23.4c1.2,0.6,2.4,1.1,4.1,1.8c0-9.1,0-17.6,0-26.6
	C127.1,180.7,141.9,180.7,156.8,180.7z"/>
<path d="M225.1,36.1c0-7.7,0-14.9,0-22.4c26.2,0,52.4,0,78.9,0c0,22,0,44,0,66.7c5.8-3.8,11-7.3,16.3-10.8
	c4.2,6.3,8.3,12.4,12.5,18.8c-4.1,2.7-8,5.3-11.9,8c-8.6,5.8-17.2,11.6-25.9,17.2c-1,0.7-3.2,0.9-4.2,0.2
	c-12.5-8.1-24.8-16.4-37.1-24.6c-0.3-0.2-0.5-0.5-0.9-1c4-6.1,8.1-12.2,12.3-18.5c5.3,3.5,10.5,6.9,16.1,10.6c0-15,0-29.3,0-44.2
	C262.5,36.1,243.9,36.1,225.1,36.1z"/>
<path d="M78.2,349.7c0-22,0-44,0-66.8c-5.8,3.8-11,7.2-16.4,10.7c-4.2-6.3-8.3-12.4-12.5-18.7c13.5-9,26.8-17.9,40.1-26.8
	c13.3,8.9,26.5,17.7,40.1,26.7c-4.1,6.2-8.1,12.3-12.5,18.8c-5.3-3.5-10.4-6.9-16-10.6c0,14.9,0,29.3,0,44.2c18.6,0,37.1,0,55.9,0
	c0,7.7,0,14.9,0,22.4C130.9,349.7,104.7,349.7,78.2,349.7z"/>
<path d="M380,135.5c-58,0-116,0-174,0c-1.2,0-2.4,0.2-3.5,0.2v203.1h45v40.5c1.7-0.8,2.9-1.3,4.1-1.9c21.2-10.6,42.6-20.8,63.5-31.9
	c9.5-5,18.9-7.5,29.6-6.9c12.7,0.7,25.5,0.3,38.2,0.4V135.8C382,135.7,381,135.5,380,135.5z M337.7,293.2c-1.1,0.1-2.2,0.3-3.2,0.3
	c-17.3,0-34.5,0.1-51.7,0c-16.5-0.1-29.4-9.4-33.8-24.1c-5-16.7,3.4-34.3,19.6-41c1.1-0.5,2.3-0.9,3-1.2c-0.4-5.6-1.4-10.9-1-16.1
	c1.2-16.6,15.4-29.9,32.1-30.3c7.8-0.2,15.7,0,23.8,0v22.5c-7.7,0-15.1-0.1-22.6,0c-6.2,0.1-10.9,4.9-11,11
	c-0.1,6.2,4.6,11.2,10.9,11.5c2.7,0.1,5.5,0,8.3,0h14.5v22.5h-4.2c-13.5,0-27-0.1-40.5,0c-6,0-10.5,4-11.3,9.5
	c-0.9,5.4,2.1,10.7,7.4,12.4c1.7,0.6,3.7,0.6,5.5,0.7c16.8,0,33.5,0,50.2,0h4.2V293.2z"/>
<path d="M66.7,158c-7.7,0-14.8,0-22.4,0c-0.1-1.2-0.2-2.4-0.2-3.6c0-21.4-0.1-42.7,0-64.1c0.2-25.5,21-45.7,46.2-45.2
	c23.8,0.5,43.3,19.4,44,43.9c0.6,22.5,0.1,45,0.1,67.5c0,0.4-0.1,0.7-0.3,1.4c-7.2,0-14.5,0-22.3,0c0-11.1,0-22.2,0-33.6
	c-3.1,0-5.7,0-8.3,0c-11.1,0-22.2,0.1-33.4-0.1c-2.7,0-3.7,0.7-3.6,3.6c0.2,8.6,0.1,17.2,0.1,25.9C66.7,154.9,66.7,156.3,66.7,158z
	 M111.7,101.3c0-4.9,0.4-9.4-0.1-13.8c-1.1-10.8-9.9-19-21-19.8c-10.4-0.8-20.9,6.7-23,17c-1.1,5.3-0.8,10.8-1.2,16.6
	C81.9,101.3,96.6,101.3,111.7,101.3z"/>
</svg>
