<?xml version="1.0" encoding="utf-8"?>
<!-- Generator: Adobe Illustrator 22.0.0, SVG Export Plug-In . SVG Version: 6.00 Build 0)  -->
<svg version="1.1" id="Layer_1" xmlns="http://www.w3.org/2000/svg" xmlns:xlink="http://www.w3.org/1999/xlink" x="0px" y="0px"
	 viewBox="0 0 347.6 336.6" enable-background="new 0 0 347.6 336.6" xml:space="preserve">
<rect x="-55.1" y="-56.6" display="none" fill="#ED1111" width="502" height="464"/>
<path d="M220.7,23.5c0-7.7,0-14.9,0-22.4c26.2,0,52.4,0,78.9,0c0,22,0,44,0,66.7c5.8-3.8,11-7.3,16.3-10.8
	c4.2,6.3,8.3,12.4,12.5,18.8c-4.1,2.7-8,5.3-11.9,8c-8.6,5.8-17.2,11.6-25.9,17.2c-1,0.7-3.2,0.9-4.2,0.2
	c-12.5-8.1-24.8-16.4-37.1-24.6c-0.3-0.2-0.5-0.5-0.9-1c4-6.1,8.1-12.2,12.3-18.5c5.3,3.5,10.5,6.9,16.1,10.6c0-15,0-29.3,0-44.2
	C258.1,23.5,239.5,23.5,220.7,23.5z"/>
<path d="M73.8,337.2c0-22,0-44,0-66.8c-5.8,3.8-11,7.2-16.4,10.7c-4.2-6.3-8.3-12.4-12.5-18.7c13.5-9,26.8-17.9,40.1-26.8
	c13.3,8.9,26.5,17.7,40.1,26.7c-4.1,6.2-8.1,12.3-12.5,18.8c-5.3-3.5-10.4-6.9-16-10.6c0,14.9,0,29.3,0,44.2c18.6,0,37.1,0,55.9,0
	c0,7.7,0,14.9,0,22.4C126.5,337.2,100.4,337.2,73.8,337.2z"/>
<g>
	<path d="M342.1,293.6c-1.6-1.6-3.9-1.9-6.1-0.9c-2.3,1-4.6,2-6.9,2.9c-12.7,4.7-25.3,4.9-37.9-0.3c-11-4.5-19.8-11.5-25.6-22.1
		c-8.7-16-10.1-32.2-1.9-48.8c3.4-7,7.9-13.1,13.9-18c2.9-2.3,6.2-4.2,9.5-6.1c2.6-1.5,3.8-3.5,3.3-6.2c-0.5-2.4-2.2-4-5.2-4.1
		c-3.8-0.2-7.6-0.5-11.3-0.3c-13.3,0.8-25.2,5.7-36.1,13c-10.4,6.9-18.1,16.4-23.8,27.3c-9.1,17.3-9.7,35.7-4.6,54.3
		c3.2,11.6,9.6,21.6,18,30.1c14.3,14.6,32.1,21.3,49,22c16.1,0.2,28-3.5,39.2-9.5c10.5-5.7,18.6-14.1,25.3-23.8
		c0.8-1.1,1.5-2.3,2.1-3.5C343.9,297.5,343.4,294.8,342.1,293.6z M320.7,310.3c-3.9,2.8-7.5,6-11.8,8.1c-11.9,6-24.5,8.7-37.9,6.8
		c-2.3-0.3-4.7-0.7-6.9-1.4c-11-3.4-21.3-8.4-29.3-16.8c-8.5-9-14.8-19.5-17-31.8c-2.3-13.4-1.3-26.6,4.7-39
		c5.2-10.8,12.6-19.8,22.9-26.2c6.6-4.1,13.7-7.4,21.6-8.8c-2.2,2.7-4.4,5.2-6.4,7.8c-7.5,9.9-11.3,21.1-12.4,33.5
		c-1.2,13.4,2.5,25.4,9.2,36.8c6.5,11,15.8,18.8,27.3,24.2c2.7,1.3,5.5,2.2,8.3,3.2c9.7,3.5,19.6,3.5,29.6,1.4c0.1,0,0.2,0,0.6,0
		C322.2,308.9,321.6,309.7,320.7,310.3z"/>
</g>
<g>
	<path d="M100.3,1.1c3.3,1.5,4.4,4.1,4.2,7.7c-0.2,5.3,0,10.5-0.1,15.8c0,3.8-2.4,6.4-5.8,6.3c-3.3,0-5.6-2.6-5.6-6.3
		c0-5.3,0.1-10.5-0.1-15.8c-0.1-3.5,1-6.1,4.2-7.7C98.3,1.1,99.3,1.1,100.3,1.1z"/>
	<path d="M1.1,97.2C2.7,94,5.3,92.9,8.8,93c5.3,0.2,10.5,0,15.8,0.1c3.8,0,6.4,2.4,6.3,5.8c0,3.4-2.6,5.6-6.3,5.6
		c-5.3,0-10.5-0.1-15.8,0.1c-3.5,0.1-6.1-1-7.7-4.2C1.1,99.3,1.1,98.3,1.1,97.2z"/>
	<path d="M147.3,98.7c0.1,26.8-21.7,48.6-48.6,48.7c-26.8,0-48.6-21.8-48.6-48.6c0-26.9,21.9-48.6,48.6-48.6
		C125.7,50.3,147.3,71.9,147.3,98.7z"/>
	<path d="M169.7,163.7c-0.4,2.4-1.4,4.2-3.4,5.2c-2.1,1-4.4,0.9-6.1-0.7c-4.7-4.5-9.4-9.1-13.9-13.9c-2-2.1-1.7-5.6,0.4-7.6
		c2.1-2,5.5-2.3,7.6-0.3c4.7,4.5,9.2,9.1,13.7,13.7C168.9,161,169.2,162.5,169.7,163.7z"/>
	<path d="M163.6,27.8c2.5,0.3,4.3,1.4,5.3,3.5c1,2.1,0.9,4.4-0.8,6.1c-4.5,4.7-9.1,9.3-13.7,13.7c-2.1,2-5.6,1.7-7.6-0.3
		c-2.1-2.1-2.4-5.6-0.3-7.8c4.4-4.6,9-9.1,13.6-13.6C161,28.7,162.4,28.4,163.6,27.8z"/>
	<path d="M27.8,33.9c0.3-2.4,1.3-4.2,3.4-5.2c2.1-1,4.4-1,6.1,0.6c4.7,4.5,9.4,9.1,13.9,13.9c2,2.1,1.7,5.6-0.3,7.6
		c-2.1,2.1-5.6,2.4-7.8,0.2c-4.6-4.4-9.1-9-13.6-13.6C28.6,36.5,28.4,35.1,27.8,33.9z"/>
	<path d="M34,169.7c-2.5-0.3-4.3-1.4-5.3-3.5c-1-2.1-0.9-4.4,0.8-6.1c4.5-4.7,9.1-9.3,13.7-13.7c2.1-2,5.5-1.7,7.6,0.3
		c2.1,2,2.5,5.5,0.4,7.6c-4.5,4.7-9.2,9.3-13.9,13.9C36.5,169,35.1,169.2,34,169.7z"/>
	<path d="M181.5,93c2.9,0,5.8,0,8.8,0c3.5,0,6.1,2.4,6.1,5.7c0,3.3-2.5,5.7-6.1,5.7c-5.9,0-11.8,0-17.7,0c-3.5,0-6-2.5-6-5.8
		c0-3.2,2.5-5.6,6-5.6C175.5,93,178.5,93,181.5,93z"/>
	<path d="M104.5,181.5c0,2.9,0,5.8,0,8.8c0,3.5-2.4,6.1-5.7,6.1c-3.3,0-5.7-2.5-5.7-6.1c0-5.9,0-11.8,0-17.7c0-3.5,2.5-6,5.8-6
		c3.2,0,5.6,2.5,5.6,6c0,0.1,0,0.1,0,0.2C104.5,175.7,104.5,178.6,104.5,181.5z"/>
</g>
</svg>
