<?xml version="1.0" encoding="utf-8"?>
<!-- Generator: Adobe Illustrator 22.0.0, SVG Export Plug-In . SVG Version: 6.00 Build 0)  -->
<svg version="1.1" id="Capa_1" xmlns="http://www.w3.org/2000/svg" xmlns:xlink="http://www.w3.org/1999/xlink" x="0px" y="0px"
	 viewBox="0 0 337.5 337.5" style="enable-background:new 0 0 337.5 337.5;" xml:space="preserve">
<g>
	<g>
		<g>
			<path d="M333.4,88.9c-5.4-5.4-14.2-5.5-19.6-0.1l-0.2-0.2L237,169.4l16.1,18.5l81.9-81.3C338.8,101.2,338.3,93.7,333.4,88.9z
				 M254.9,178.5l-3.7-3.9L301,128l3.7,3.9L254.9,178.5z"/>
			<path d="M230.4,196.8c-6.8-7.7-17.8-11.1-33.5-9.6c-13.9,1.3-24.3,5.4-32.2,11l-7.8,17.7h14.7v5.4h-22.9l6.5-14.7
				c-8.2,9.1-12.7,19.5-15.9,27.4c-1.4,3.3-2.6,6.1-3.8,8.3c-7.5,13.5-18.5,18.3-35.8,15.8c8,13.8,33.3,52.1,65.4,52.1
				c11.3,0,22.5-4.8,33.5-14.1l-20.6,7.2l29-49.3l4.6,2.7L190,293.4l17.7-6.2c6.4-7.1,12.7-15.7,18.9-26c5.3-8.8,11.4-24,11.3-38
				C237.9,222.6,239.7,207.3,230.4,196.8z M164.8,277.2c-9.9,0-18.8-4-19.4-4.2l-4.2-1.9l24.9-17.9l3.1,4.4l-17,12.3
				c6.2,1.9,17.3,4.1,25-1.4l3.1,4.4C175.6,276.1,170,277.2,164.8,277.2z M186.3,241.1c-1.1,0-2-0.2-2.8-0.7c-1.1-0.7-2.8-2.4-2-6.2
				c2.8-13.8,11.7-26.5,12.1-27l4.4,3.1c-0.1,0.1-8.7,12.3-11.2,25c-0.1,0.3-0.1,0.5-0.1,0.6h0c3.5,0,16.2-7.3,28-16.3l3.3,4.3
				C209,230.7,193.9,241.1,186.3,241.1z"/>
			<path d="M252.3,206.6c2.1-2.1,0.4-9.1-1.5-13.4l-19.1-21.8c-3-1.7-6.8-3.3-9.2-1.8c-3.6,2.3-3.7,10.9-3.5,14
				c6.3,1.9,11.5,5.1,15.5,9.6c3.3,3.8,5.5,8,6.8,12.1C249.1,208.5,251.6,207.3,252.3,206.6z"/>
			<polygon points="275.3,252.6 244.6,252.6 244.6,258 280.6,258 280.6,193.1 275.3,193.1 			"/>
		</g>
		<path d="M5.4,252.6V101H0v157h80.6v-5.4H5.4z"/>
		<path d="M0,27.3V101h5.4V88.9h269.9v5.2h5.4V27.3H0z M128.6,56.4c0-8.2,6.6-14.8,14.8-14.8c8.2,0,14.8,6.6,14.8,14.8
			c0,8.2-6.6,14.8-14.8,14.8C135.2,71.2,128.6,64.6,128.6,56.4z M182.3,56.4c0-8.2,6.6-14.8,14.8-14.8c8.2,0,14.8,6.6,14.8,14.8
			c0,8.2-6.6,14.8-14.8,14.8C189,71.2,182.3,64.6,182.3,56.4z M250.8,71.2c-8.1,0-14.8-6.6-14.8-14.8c0-8.2,6.6-14.8,14.8-14.8
			c8.2,0,14.8,6.6,14.8,14.8C265.6,64.6,259,71.2,250.8,71.2z"/>
	</g>
</g>
</svg>
