<svg id="Layer_1" data-name="Layer 1" xmlns="http://www.w3.org/2000/svg" viewBox="0 0 344.36 335.17"><title>Artboard 2</title><path d="M219.6,22.85V.45h78.9v66.7c5.8-3.8,11-7.3,16.3-10.8,4.2,6.3,8.3,12.4,12.5,18.8-4.1,2.7-8,5.3-11.9,8-8.6,5.8-17.2,11.6-25.9,17.2a4.48,4.48,0,0,1-4.2.2c-12.5-8.1-24.8-16.4-37.1-24.6a4.67,4.67,0,0,1-.9-1c4-6.1,8.1-12.2,12.3-18.5,5.3,3.5,10.5,6.9,16.1,10.6V22.85Z"/><path d="M72.7,336.55v-66.8c-5.8,3.8-11,7.2-16.4,10.7-4.2-6.3-8.3-12.4-12.5-18.7,13.5-9,26.8-17.9,40.1-26.8,13.3,8.9,26.5,17.7,40.1,26.7-4.1,6.2-8.1,12.3-12.5,18.8-5.3-3.5-10.4-6.9-16-10.6v44.2h55.9v22.4C125.4,336.55,99.3,336.55,72.7,336.55Z"/><path d="M341.9,299a25,25,0,0,1-2.1,3.5c-6.7,9.7-14.8,18.1-25.3,23.8a76.6,76.6,0,0,1-39.2,9.5,72.4,72.4,0,0,1-49-22c-8.4-8.5-14.8-18.5-18-30.1-5.1-18.6-4.5-37,4.6-54.3,5.7-10.9,13.4-20.4,23.8-27.3,10.9-7.3,22.8-12.2,36.1-13a107.3,107.3,0,0,1,11.3.3c3,.1,4.7,1.7,5.2,4.1.5,2.7-.7,4.7-3.3,6.2a77,77,0,0,0-9.5,6.1,52.22,52.22,0,0,0-13.9,18c-8.2,16.6-6.8,32.8,1.9,48.8,5.8,10.6,14.6,17.6,25.6,22.1,12.6,5.2,25.2,5,37.9.3,2.3-.9,4.6-1.9,6.9-2.9a5.26,5.26,0,0,1,6.1.9C342.3,294.15,342.8,296.85,341.9,299Z"/><path d="M99.11,3c3.23,1.44,4.31,4,4.1,7.48-.22,5.17,0,10.2-.08,15.38,0,3.66-2.3,6.25-5.67,6.11S92,29.45,92,25.86c0-5.18.08-10.21-.07-15.38-.07-3.38,1-6,4.1-7.48Z"/><path d="M2.59,96.58c1.58-3.09,4.1-4.17,7.47-4.1,5.18.22,10.21,0,15.38.07,3.67,0,6.26,2.3,6.11,5.68s-2.51,5.46-6.11,5.46c-5.17,0-10.2-.07-15.38.07-3.37.08-6-1-7.47-4.09Z"/><path d="M97.67,145.38A47.29,47.29,0,1,1,145,98,47.33,47.33,0,0,1,97.67,145.38Zm-.14-83.44a36.15,36.15,0,1,0,36.22,36A36.19,36.19,0,0,0,97.53,61.94Z"/><path d="M166.67,161.26a6.21,6.21,0,0,1-3.31,5,5.2,5.2,0,0,1-6-.65c-4.59-4.38-9.12-8.84-13.51-13.51a5.37,5.37,0,0,1,.36-7.4,5.45,5.45,0,0,1,7.41-.29c4.59,4.39,9,8.84,13.29,13.3C165.88,158.6,166.16,160.11,166.67,161.26Z"/><path d="M160.7,29a6.15,6.15,0,0,1,5.18,3.38,5,5,0,0,1-.8,6c-4.38,4.6-8.84,9.06-13.29,13.3a5.44,5.44,0,0,1-7.4-.29,5.56,5.56,0,0,1-.29-7.62c4.31-4.45,8.77-8.84,13.22-13.22A25.63,25.63,0,0,1,160.7,29Z"/><path d="M28.53,35a6,6,0,0,1,3.31-5,5.1,5.1,0,0,1,6,.58C42.4,34.91,46.93,39.37,51.32,44a5.5,5.5,0,0,1-7.91,7.62C39,47.35,34.57,42.89,30.19,38.43,29.32,37.5,29.18,36.14,28.53,35Z"/><path d="M34.57,167.08a6.12,6.12,0,0,1-5.17-3.38,5,5,0,0,1,.79-6c4.38-4.6,8.84-9.06,13.29-13.3a5.46,5.46,0,0,1,7.41.29,5.23,5.23,0,0,1,.35,7.4c-4.38,4.6-9,9.06-13.51,13.51C37,166.43,35.65,166.58,34.57,167.08Z"/><path d="M178.09,92.48h8.56c3.37,0,6,2.3,6,5.53s-2.44,5.54-6,5.54H169.4a5.59,5.59,0,0,1-5.82-5.68,5.5,5.5,0,0,1,5.82-5.46C172.27,92.48,175.22,92.48,178.09,92.48Z"/><path d="M103.21,178.58v8.55c0,3.38-2.3,6-5.54,6s-5.53-2.45-5.53-6V169.88a5.59,5.59,0,0,1,5.68-5.82,5.5,5.5,0,0,1,5.46,5.82v.22C103.21,172.9,103.21,175.78,103.21,178.58Z"/></svg>