<?xml version="1.0" encoding="utf-8"?>
<!-- Generator: Adobe Illustrator 22.0.0, SVG Export Plug-In . SVG Version: 6.00 Build 0)  -->
<svg version="1.1" id="Layer_1" xmlns="http://www.w3.org/2000/svg" xmlns:xlink="http://www.w3.org/1999/xlink" x="0px" y="0px"
	 viewBox="0 0 235.3 231.3" enable-background="new 0 0 235.3 231.3" xml:space="preserve">
<path d="M234.3,82.7c0,41,0,81.8,0,122.9c-0.8,0-1.6,0.1-2.4,0.1c-9.2,0-18.3-0.1-27.5,0.1c-1.7,0-3.6,0.5-5.2,1.2
	c-14.9,7.3-29.7,14.8-44.5,22.2c-0.7,0.4-1.5,0.7-2.5,1.2c0-8.3,0-16.3,0-24.6c-9.2,0-18.1,0-27.3,0c0-41.1,0-82,0-123
	C161.4,82.7,197.7,82.7,234.3,82.7z M220.6,96.3c-27.4,0-54.6,0-81.9,0c0,31.9,0,63.6,0,95.6c9.1,0,18,0,27.2,0c0,5.5,0,10.7,0,16.2
	c1.1-0.5,1.9-0.9,2.6-1.2c9.4-4.7,18.8-9.4,28.2-14.1c1.2-0.6,2.6-0.9,3.9-0.9c5.8-0.1,11.7,0,17.5,0c0.8,0,1.6-0.1,2.5-0.1
	C220.6,159.8,220.6,128.2,220.6,96.3z"/>
<path d="M162.9,42.5c3.2,2.1,6.3,4.2,9.7,6.4c0-9,0-17.8,0-26.7c-11.2,0-22.4,0-33.9,0c0-4.6,0-9.1,0-13.6c15.8,0,31.6,0,47.7,0
	c0,13.3,0,26.7,0,40.5c3.6-2.4,6.7-4.4,9.9-6.5c2.5,3.8,5,7.4,7.5,11.2c-0.5,0.4-0.9,0.8-1.3,1.1c-7.1,4.8-14.2,9.5-21.4,14.2
	c-0.7,0.4-2,0.7-2.5,0.3c-7.6-4.9-15.2-10-22.7-15.1c-0.2-0.1-0.3-0.3-0.5-0.6C157.9,50,160.4,46.3,162.9,42.5z"/>
<path d="M97.4,212.4c-15.9,0-31.7,0-47.7,0c0-13.4,0-26.8,0-40.6c-3.6,2.4-6.7,4.4-10,6.5c-2.6-3.9-5-7.6-7.6-11.3
	c7.9-5.3,15.7-10.5,23.4-15.6c0.4-0.3,1.3-0.3,1.8,0c7.8,5.1,15.5,10.3,23.4,15.6c-2.5,3.8-5,7.5-7.6,11.4c-3.2-2.1-6.3-4.2-9.7-6.4
	c0,9.1,0,17.8,0,26.8c11.3,0,22.6,0,33.9,0C97.4,203.4,97.4,207.8,97.4,212.4z"/>
<path d="M1.7,0.3v123.2c10.2,0,20.5,0,30.7,0c1.3,0,2.7,0.4,3.9,0.9c15,7.5,30,15,45.1,22.5c0.8,0.4,1.5,0.7,2.6,1.2v-24.7H111V0.3
	H1.7z M83.8,94.9c0,0.3-0.1,0.6-0.1,1H70.2V75.8H42.8V96H29.1c0-0.8-0.1-1.3-0.1-1.9c0-13-0.1-26,0-39.1c0.1-15.4,12.8-27.6,28-27.3
	c14.5,0.3,26.3,12,26.7,26.8C84,68,83.8,81.5,83.8,94.9z"/>
<path d="M167.3,137.8c-1.4-4.2-1.7-8.4-0.6-12.6c2.2-8.8,10.1-15.1,19.2-15.3c4.7-0.1,9.4,0,14.2,0c0,4.5,0,8.9,0,13.7
	c-4.6,0-9.1-0.1-13.6,0c-4.2,0.1-7.2,3.5-6.7,7.7c0.4,3.3,3.2,5.8,6.7,5.9c4.5,0.1,8.9,0,13.6,0c0,4.5,0,9,0,13.7
	c-0.8,0-1.6,0-2.4,0c-8.2,0-16.4,0-24.5,0c-3.6,0-6.4,2.3-6.9,5.7c-0.6,3.3,1.2,6.5,4.4,7.6c1.1,0.4,2.4,0.4,3.6,0.4
	c10.1,0,20.1,0,30.2,0c0.8,0,1.6,0,2.6,0c0,4.6,0,9,0,13.6c-0.8,0-1.4,0.1-2.1,0.1c-10.4,0-20.8,0.1-31.1,0
	c-10.1-0.1-18-5.8-20.6-14.7c-2.9-10.2,2.2-20.7,12-24.8C165.8,138.4,166.5,138.1,167.3,137.8z"/>
<path d="M70,61.8H42.8c-0.3-6-0.8-12,4.1-16.5c4-3.8,8.8-4.9,14-3c5.2,1.9,8.3,5.7,8.9,11.2C70.2,56.1,70,58.9,70,61.8z"/>
</svg>
