<?xml version="1.0" encoding="utf-8"?>
<!-- Generator: Adobe Illustrator 22.0.0, SVG Export Plug-In . SVG Version: 6.00 Build 0)  -->
<svg version="1.1" id="Capa_1" xmlns="http://www.w3.org/2000/svg" xmlns:xlink="http://www.w3.org/1999/xlink" x="0px" y="0px"
	 viewBox="0 0 565.1 501.8" enable-background="new 0 0 565.1 501.8" xml:space="preserve">
<path d="M340.3,412.2l-2-7.4l-38.7-141.2l-7.3-26.8L235,28.1c-0.1-0.2-0.1-0.4-0.2-0.7C230.3,12.2,216.4,2.2,201.1,2
	c-3.2,0-6.5,0.4-9.8,1.3L29.6,47.6c-2.9,0.8-5.6,1.9-8.1,3.3C17,53.5,13.1,57,10.1,61.2c-5.8,8.1-8.1,18.6-5.6,29
	c0.1,0.3,0.2,0.7,0.3,1l0.4,1.5l85.5,312.2l19.3,70.4c4.3,15.8,18.7,26.1,34.3,26.1c3.1,0,6.2-0.4,9.4-1.3l130.6-35.8l26.2-7.2
	l4.9-1.3c11.1-3,19.5-11,23.5-21c0.8-1.8,1.4-3.7,1.8-5.7C341.9,423.8,341.8,418,340.3,412.2z M93.8,48.3l43.1-11.8
	c2.6-0.7,4.8,0.9,4.8,3.6c0,2.7-2.1,5.5-4.7,6.2L99.9,56.5c-2.6,0.7-6.1-0.5-7.7-2.7l-0.2-0.3C90.3,51.4,91.1,49,93.8,48.3z
	 M43.8,62c3-0.8,6,0.9,6.8,3.9c0.8,2.9-0.9,6-3.9,6.8c-3,0.8-6-0.9-6.8-3.9S40.9,62.8,43.8,62z M326.4,406.6l-44.9,12.3l-22.3,6.1
	L119,463.4l-16-58.5L17,90.9l207.4-56.8l63,230.1l7.4,26.8L326,404.9L326.4,406.6L326.4,406.6z"/>
<g>
	<path d="M534.4,32L433.9,14.4L369.2,3.1c-12.5-2.2-24.7,2.5-32.6,11.3c-4.3,4.8-7.3,10.8-8.5,17.5l-7.2,40.9l-28.7,164l-4.8,27.3
		l-24.6,140.6l-3.4,19.4c0,0.2-0.1,0.5-0.1,0.7c-0.3,2.1-0.5,4.2-0.4,6.3c0.2,9.6,4.3,18.5,11,24.8c4,3.8,8.8,6.7,14.4,8.4
		c1.3,0.4,2.6,0.7,4,0.9l165.2,28.9c19.3,3.4,37.7-9.6,41.1-28.9l10.6-60.5l58.1-331.8c0-0.1,0-0.2,0-0.3
		C566.5,53.7,553.6,35.4,534.4,32z M426.9,31.1l44,7.7c2.7,0.5,3.9,2.9,2.8,5.3c-1.1,2.5-4.2,4.1-6.9,3.6l-38-6.6
		c-2.7-0.5-5.3-3-5.8-5.7l-0.1-0.4C422.5,32.4,424.2,30.6,426.9,31.1z M369.5,26.7c0.5-3,3.4-5,6.4-4.5c3,0.5,5,3.4,4.5,6.4
		c-0.5,3-3.4,5-6.4,4.5C371,32.6,369,29.7,369.5,26.7z M493.1,404.9l-8.7,49.5h0l-143.8-25.2l-11.7-2l-33.7-5.9l-13.7-2.4l-8.9-1.6
		l2.2-12.4l20-113.8l4.8-27.3L333,72.9l6.3-36l205.4,36l6.5,1.1L493.1,404.9z"/>
</g>
<g id="XMLID_197_">
	<path id="XMLID_221_" d="M417.2,329.1c6,1,12-3.4,13-9.3l4.2-26l7.4,1.2c4.5,0.7,7.9-1.8,8.6-6.2l12-74.4l-89.3-14.4l-12,74.4
		c-0.7,4.5,1.8,7.9,6.2,8.6l7.4,1.2l-4.2,26c-1,6,3.4,12,9.3,13c6,1,12-3.4,12.9-9.3l4.2-26l14.9,2.4l-4.2,26
		C406.9,322.1,411.3,328.1,417.2,329.1z"/>
	<path id="XMLID_222_" d="M469.1,291.6c6,1,12-3.4,13-9.3l8.4-52.1c1-5.9-3.4-12-9.3-12.9c-6-1-12,3.4-13,9.3l-8.4,52.1
		C458.8,284.6,463.1,290.7,469.1,291.6z"/>
	<path id="XMLID_223_" d="M342.6,271.2c6,1,12-3.4,13-9.3l8.4-52.1c1-5.9-3.4-12-9.3-12.9c-6-1-12,3.4-12.9,9.3l-8.4,52.1
		C332.3,264.2,336.7,270.2,342.6,271.2z"/>
	<path id="XMLID_224_" d="M463,154.8c-1.2-1.7-3.5-2.1-5.2-0.8l-11.6,8.3l-0.5,0.4c-5.4-3.9-11.8-6.5-19.2-7.7c0,0-0.1,0-0.1,0l0,0
		c0,0-0.1,0-0.1,0c-7.4-1.2-14.3-0.8-20.7,1.2l-0.4-0.5l-8.4-11.6c-1.2-1.7-3.5-2.1-5.2-0.8c-1.7,1.2-2.1,3.5-0.8,5.2l8.1,11.2
		c-3.4,1.6-6.7,3.7-9.6,6.2c-7,6-12.2,14.5-14.3,24.2c0,0.1,0,0.2-0.1,0.3c-0.1,0.7-0.3,1.3-0.4,2l89.3,14.4c0.1-0.7,0.2-1.3,0.3-2
		c0-0.1,0-0.2,0-0.3c1.1-9.9-1.2-19.6-6-27.5c-2-3.3-4.4-6.3-7.2-8.9l11.2-8.1C463.8,158.8,464.2,156.6,463,154.8z M402.6,183.6
		c-3.1-0.5-5.2-3.4-4.7-6.5c0.5-3.1,3.4-5.2,6.5-4.7c3.1,0.5,5.2,3.4,4.7,6.5C408.6,182,405.7,184.1,402.6,183.6z M439.8,189.6
		c-3.1-0.5-5.2-3.4-4.7-6.5c0.5-3.1,3.4-5.2,6.5-4.7c3.1,0.5,5.2,3.4,4.7,6.5C445.8,188,442.9,190.1,439.8,189.6z"/>
</g>
<g>
	<g>
		<path d="M180.8,166.8c0.3-0.1,0.6-0.2,0.9-0.2c3.1,8.5,1.6,15.8-1.1,21.6c-2.6,5.7-6.8,11.7-15.7,13.5c-2.9-8.4-1.3-15.3,1.4-21
			C168.8,175.3,174.6,169.5,180.8,166.8z"/>
		<path d="M232.1,249.5c0,0.1,0,0.2,0.1,0.2c-0.4,8.1-2.1,15.4-4.8,22.5c-2.4,6.4-5.2,15-13.7,17.3c-7.4,2-13.6-1.3-21.1,0.6
			c-8,2.1-11.3,7.4-18.3,10.4c-0.8,0.2-1.7,0.5-2.5,0.7c-5.6,0.7-11.1-2.3-15.3-5.3c-12.4-8.7-23.6-21.3-30.1-39.6
			c-0.5-1.8-1-3.7-1.5-5.5c-3.1-13.5,0.4-26.2,7.5-33.8c3.8-4.1,9.4-8.2,16.6-9c3.1-0.4,6.5-0.2,9.4,0.1c2.8,0.3,6.5,1.1,9.4,0.2
			c2-0.6,3.7-2.2,5.6-3.6c5.4-3.8,10.6-8,18.7-8.9c9.7-1.2,17.5,1.1,23.4,6.4c-6.5,7.2-10.6,16.5-6,29.1
			C213.8,242.9,222.5,247.8,232.1,249.5z"/>
	</g>
</g>
</svg>
