<svg width="36" height="38" viewBox="0 0 36 38" fill="none" xmlns="http://www.w3.org/2000/svg">
<path d="M21.0567 19.003L2.16966 37.194C1.73408 36.8962 1.37851 36.4958 1.13435 36.028C0.890188 35.5603 0.764938 35.0396 0.76966 34.512V3.49401C0.764938 2.96639 0.890188 2.44573 1.13435 1.97798C1.37851 1.51023 1.73408 1.10979 2.16966 0.812012L21.0567 19.003Z" fill="#2196F3"/>
<path d="M27.667 12.6491L21.057 19.0031L2.16602 0.812107C2.23721 0.756836 2.31131 0.705429 2.38802 0.658107C2.87836 0.361061 3.43888 0.199787 4.01211 0.190825C4.58533 0.181863 5.15063 0.325535 5.65002 0.607107L27.667 12.6491Z" fill="#4CAF50"/>
<path d="M35.6776 19.003C35.6829 19.5959 35.5268 20.1791 35.2259 20.69C34.925 21.2009 34.4907 21.6202 33.9696 21.903L27.6696 25.353L21.0596 18.999L27.6696 12.645L33.9696 16.095C34.4919 16.3785 34.927 16.7991 35.228 17.3115C35.5289 17.8239 35.6844 18.4088 35.6776 19.003Z" fill="#FFC107"/>
<path d="M27.667 25.3569L5.65002 37.3989C5.14926 37.6762 4.58456 37.8175 4.01221 37.8085C3.43987 37.7996 2.87986 37.6408 2.38802 37.3479C2.31131 37.3006 2.2372 37.2492 2.16602 37.1939L21.057 19.0029L27.667 25.3569Z" fill="#F44336"/>
</svg>
